<?xml version="1.0" encoding="UTF-8" standalone="no"?>
<svg
   xmlns:dc="http://purl.org/dc/elements/1.1/"
   xmlns:cc="http://creativecommons.org/ns#"
   xmlns:rdf="http://www.w3.org/1999/02/22-rdf-syntax-ns#"
   xmlns:svg="http://www.w3.org/2000/svg"
   xmlns="http://www.w3.org/2000/svg"
   xmlns:sodipodi="http://sodipodi.sourceforge.net/DTD/sodipodi-0.dtd"
   xmlns:inkscape="http://www.inkscape.org/namespaces/inkscape"
   sodipodi:docname="wave.svg"
   width="1080"
   height="1920"
   viewBox="0 0 285.75001 508"
   version="1.1"
   id="svg8"
   inkscape:version="1.0 (4035a4f, 2020-05-01)">
  <defs
     id="defs2" />
  <sodipodi:namedview
     inkscape:window-maximized="0"
     inkscape:window-y="188"
     inkscape:window-x="0"
     inkscape:window-height="1080"
     inkscape:window-width="1920"
     units="px"
     id="base"
     pagecolor="#ffffff"
     bordercolor="#666666"
     borderopacity="1.0"
     inkscape:pageopacity="0.0"
     inkscape:pageshadow="2"
     inkscape:zoom="1.979899"
     inkscape:cx="-39.684729"
     inkscape:cy="137.1064"
     inkscape:document-units="mm"
     inkscape:current-layer="layer1"
     inkscape:document-rotation="0"
     showgrid="false" />
  <metadata
     id="metadata5">
    <rdf:RDF>
      <cc:Work
         rdf:about="">
        <dc:format>image/svg+xml</dc:format>
        <dc:type
           rdf:resource="http://purl.org/dc/dcmitype/StillImage" />
        <dc:title></dc:title>
      </cc:Work>
    </rdf:RDF>
  </metadata>
  <g
     inkscape:label="Capa 1"
     inkscape:groupmode="layer"
     id="layer1">
    <path
       sodipodi:nodetypes="ssssssssssssssss"
       id="path830"
       d="m 73.85693,296.69743 c 17.708518,5.28108 37.71849,-0.74318 55.18452,5.29166 36.2047,12.50941 60.45527,49.77771 96.76191,61.9881 39.29243,13.21454 83.79933,20.04203 123.97618,9.82737 30.88811,-7.85307 65.53292,-23.82976 80.13097,-52.16071 35.58056,-69.05244 31.99558,-167.373 -9.82739,-232.833325 C 385.43646,34.58239 312.73474,-3.1938176 248.48193,0.36410235 200.75173,3.0071024 154.98202,39.58633 129.04145,79.739097 c -10.11596,15.658253 -12.72659,36.904663 -9.07143,55.184523 5.41527,27.08233 21.14211,54.57636 43.84524,70.30357 36.76395,25.46761 94.92493,0.77102 131.53571,26.45833 13.51378,9.4817 32.23767,27.17368 25.70239,42.33333 -17.13929,39.75735 -84.50872,35.51445 -127,27.21429 -30.79879,-6.01617 -47.50549,-44.96839 -77.8631,-52.91667 C 78.759462,238.51627 8.2030838,220.21991 0.52954879,258.14385 -4.9470832,285.21032 47.393669,288.80548 73.85693,296.69743 Z"
       style="fill:#0000ff;fill-opacity:1;stroke:none;stroke-width:0.26458300000000001px;stroke-linecap:butt;stroke-linejoin:miter;stroke-opacity:1" />
    <path
       sodipodi:nodetypes="ssssssssss"
       id="path832"
       d="m 35.424521,8.7694792 c -9.77773,4.0500698 -23.62463,-6.78125 -31.7499998,0 -4.32591999,3.6103198 -3.78188999,11.0476498 -3.02379999,16.6309498 1.09175999,8.04073 4.00834999,17.1671 10.58332979,21.92262 10.91532,7.89477 27.26954,9.50302 40.06547,5.29166 9.31023,-3.06416 21.61972,-10.61968 21.16667,-20.41071 -0.29832,-6.44705 -11.85301,-6.5287 -15.11905,-12.09524 -3.10263,-5.28804 1.51983,-14.0264298 -3.02381,-18.1428598 -2.80735,-2.54339998 -7.79318,-2.08833998 -11.33928,-0.75595 -3.33589,1.25341 -4.2672,6.1958 -7.55953,7.55953 z"
       style="fill:#0000ff;fill-opacity:1;stroke:none;stroke-width:0.26458300000000001px;stroke-linecap:butt;stroke-linejoin:miter;stroke-opacity:1" />
    <path
       sodipodi:nodetypes="ssssssssssssssss"
       id="path834"
       d="m 15.587591,71.302788 c 4.151512,5.268005 6.121853,15.457515 12.828938,15.501635 4.676903,0.0308 4.419352,-10.98388 9.087163,-10.69078 5.524173,0.34687 3.618966,14.75569 9.087164,13.89801 9.309509,-1.46019 0.854949,-20.563666 7.483546,-27.261489 2.737377,-2.765965 8.414484,-0.515953 11.22532,-3.207234 3.255864,-3.117381 6.502281,-8.909272 4.276311,-12.828937 C 65.882583,40.210271 51.510772,48.314928 47.659934,41.903141 45.27826,37.937566 49.787637,32.874745 51.401707,28.539664 53.737906,22.265085 61.957486,16.754042 59.954332,10.365337 58.354187,5.2619573 51.25724,3.5943873 46.056317,2.3472513 36.166379,-0.02426972 24.033447,-1.7150387 15.587591,3.9508683 6.5858262,9.9897073 -3.8760718,24.048747 1.6895762,33.350516 7.0942422,42.38324 30.559405,24.771676 33.22738,34.954132 36.272021,46.57415 4.9327132,42.383644 2.7586542,54.197539 1.4687292,61.207025 11.176141,65.70494 15.587591,71.302788 Z"
       style="fill:#0000ff;fill-opacity:1;stroke:none;stroke-width:0.26458300000000001px;stroke-linecap:butt;stroke-linejoin:miter;stroke-opacity:1" />
    <path
       sodipodi:nodetypes="sssssss"
       id="path836"
       d="m 42.485364,1.4310978 c -15.19186,3.35471 -41.0609604,4.14903 -42.33333037,19.6547602 -0.54873,6.68712 10.39024037,8.87512 16.63096037,11.3393 16.83914,6.64902 44.00923,23.6251 53.67261,8.31545 3.58132,-5.67387 -11.59526,-9.92623 -11.33928,-16.63094 0.36934,-9.67387 21.92262,-21.9226002 18.14286,-22.6785702 -3.77977,-0.75594003 -23.45523,-2.49941 -34.77382,0 z"
       style="fill:#0000ff;fill-opacity:1;stroke:none;stroke-width:0.26458300000000001px;stroke-linecap:butt;stroke-linejoin:miter;stroke-opacity:1" />
    <path
       sodipodi:nodetypes="sssssss"
       id="path838"
       d="m 67.27976,233.58928 c -5.928184,-4.27279 -15.953629,-4.2156 -21.922618,0 -6.770434,4.78162 -12.111816,16.06632 -8.315476,23.43453 3.360851,6.52298 13.83622,5.71723 21.166667,6.04761 5.381342,0.24254 12.743589,1.35934 15.874999,-3.0238 2.071558,-2.89963 -0.693159,-7.11507 -1.511905,-10.58334 -1.28154,-5.42869 -0.766634,-12.61354 -5.291667,-15.875 z"
       style="fill:#0000ff;stroke:#000000;stroke-width:0.26458300000000001px;stroke-linecap:butt;stroke-linejoin:miter;stroke-opacity:1;fill-opacity:1" />
    <path
       style="fill:#0000ff;fill-opacity:1;stroke:none;stroke-width:0.26458300000000001px;stroke-linecap:butt;stroke-linejoin:miter;stroke-opacity:1"
       d="m 40.116573,79.446899 c -1.822596,18.38911 7.891465,36.891221 5.282787,55.185371 -5.407468,37.92131 -37.3931962,68.80704 -42.4877102,106.77164 -5.513507,41.08676 -3.76600004,86.08036 13.8914032,123.58681 13.575102,28.83511 35.839362,59.81607 66.426729,68.7692 74.552128,21.82192 170.403358,-0.36648 226.731698,-53.85793 46.66307,-44.31297 69.9478,-122.86486 54.25458,-185.27325 -11.65771,-46.36006 -56.26204,-84.35164 -100.60984,-102.196281 -17.29417,-6.95881 -38.64976,-5.48777 -55.90305,1.57179 -25.56143,10.459011 -49.56915,31.120191 -60.69949,56.396521 -18.02374,40.93082 17.26691,93.34447 -1.00163,134.16662 -6.74326,15.06828 -20.5582,36.81083 -36.68295,33.27287 C 67.030684,308.56172 58.404583,241.61224 58.485709,198.31796 58.544509,166.93714 93.61593,143.13829 95.655453,111.82375 98.170184,73.213079 102.73677,0.46621915 64.04573,0.13309915 36.431759,-0.10465085 42.840222,51.966559 40.116573,79.446899 Z"
       id="path830-8"
       sodipodi:nodetypes="ssssssssssssssss" />
  </g>
</svg>
