<?xml version="1.0" encoding="UTF-8" standalone="no"?>
<svg
   xmlns:dc="http://purl.org/dc/elements/1.1/"
   xmlns:cc="http://creativecommons.org/ns#"
   xmlns:rdf="http://www.w3.org/1999/02/22-rdf-syntax-ns#"
   xmlns:svg="http://www.w3.org/2000/svg"
   xmlns="http://www.w3.org/2000/svg"
   xmlns:sodipodi="http://sodipodi.sourceforge.net/DTD/sodipodi-0.dtd"
   xmlns:inkscape="http://www.inkscape.org/namespaces/inkscape"
   inkscape:version="1.0 (4035a4f, 2020-05-01)"
   id="svg8"
   version="1.1"
   viewBox="0 0 105 99"
   height="99mm"
   width="105mm"
   sodipodi:docname="wave.svg">
  <defs
     id="defs2" />
  <sodipodi:namedview
     showgrid="false"
     inkscape:document-rotation="0"
     inkscape:current-layer="layer3"
     inkscape:document-units="mm"
     inkscape:cy="172.60352"
     inkscape:cx="59.483724"
     inkscape:zoom="1.4"
     inkscape:pageshadow="2"
     inkscape:pageopacity="0.0"
     borderopacity="1.0"
     bordercolor="#666666"
     pagecolor="#ffffff"
     id="base"
     inkscape:window-width="1920"
     inkscape:window-height="1027"
     inkscape:window-x="0"
     inkscape:window-y="213"
     inkscape:window-maximized="0" />
  <metadata
     id="metadata5">
    <rdf:RDF>
      <cc:Work
         rdf:about="">
        <dc:format>image/svg+xml</dc:format>
        <dc:type
           rdf:resource="http://purl.org/dc/dcmitype/StillImage" />
        <dc:title></dc:title>
      </cc:Work>
    </rdf:RDF>
  </metadata>
  <g
     id="layer1"
     inkscape:groupmode="layer"
     inkscape:label="wave"
     style="display:inline">
    <path
       sodipodi:nodetypes="ccccccccccccsssscc"
       id="path1573"
       d="m 0.13229157,142.11979 c 4.75635903,-4.71413 8.38988683,-10.84525 22.86758443,-9.6384 17.673572,1.94617 29.436441,15.32833 40.254508,17.00893 33.619059,5.33375 21.077313,-23.77005 30.238126,-25.89137 12.01298,-2.72236 15.70526,-2.62432 32.07756,16.8399 8.72822,10.6537 15.27808,-15.01916 26.50881,-16.08394 8.95723,-0.45371 7.37619,40.89954 20.59972,43.84523 18.60817,3.82607 24.21432,-7.30975 21.16669,-15.68601 -13.84344,-27.65381 7.31901,-31.78379 15.49704,-30.23809 11.67178,1.85447 2.86259,29.38184 5.66965,36.28571 7.37937,14.59471 14.22822,7.7033 20.59973,-18.52083 V 32.369684 c -19.2197,-0.0039 -57.82121,64.213715 -89.1799,56.751119 C 120.32024,82.906888 144.32136,44.38302 125.8119,20.800223 97.826094,-14.856323 -1.8252574,-4.006283 9.7161807,50.516046 14.136065,71.395798 67.46614,53.154237 60.553612,77.688368 54.425466,99.438546 0.46704092,67.111126 0.13229257,98.60528 Z"
       style="fill:#005ad2;fill-opacity:1;stroke:none;stroke-width:0.264583px;stroke-linecap:butt;stroke-linejoin:miter;stroke-opacity:1" />
  </g>
  <g
     inkscape:groupmode="layer"
     id="layer3"
     inkscape:label="bubbles"
     style="display:inline">
    <path
       id="path1534"
       d="M 9.9466066,2.7888474e-4 C 16.177507,-0.03586112 21.061687,3.4442939 22.003747,8.2116639 22.202057,14.281571 12.041677,21.194906 6.0346966,19.437336 c -7.34445,-1.67537 -9.39369,-13.5373431 1.93735,-19.31044912 0.67052,-0.08147 1.32998,-0.122869 1.97456,-0.12660799526 z"
       style="fill:#005ad2;fill-opacity:1;stroke:none;stroke-width:0.264583px;stroke-linecap:butt;stroke-linejoin:miter;stroke-opacity:1" />
    <path
       sodipodi:nodetypes="scsccs"
       style="display:inline;fill:#005ad2;fill-opacity:1;stroke:none;stroke-width:0.264583px;stroke-linecap:butt;stroke-linejoin:miter;stroke-opacity:1"
       d="m 19.354018,25.861347 c 6.2309,-0.03614 11.11508,3.444015 12.05714,8.211385 0.07544,2.309134 0.733635,7.274158 -1.29435,8.800334 -3.302879,2.485606 -10.418376,0.707957 -14.140161,-0.380992 -7.3444506,-1.67537 -9.9282297,-10.731013 1.402811,-16.504119 0.67052,-0.08147 1.32998,-0.122869 1.97456,-0.126608 z"
       id="path1534-4" />
    <path
       id="path1534-4-1"
       d="m 46.909187,23.271231 c 6.2309,-0.03614 11.11508,3.444015 12.057141,8.211385 0.07544,2.309134 0.733634,7.274158 -1.294351,8.800334 -3.302879,2.485606 -10.418376,0.707957 -14.140161,-0.380992 -4.393325,-1.002178 -2.205504,-4.712002 -1.23249,-8.713534 0.653602,-2.687948 -1.917706,-5.470852 2.635301,-7.790585 0.67052,-0.08147 1.32998,-0.122869 1.97456,-0.126608 z"
       style="display:inline;fill:#005ad2;fill-opacity:1;stroke:none;stroke-width:0.264583px;stroke-linecap:butt;stroke-linejoin:miter;stroke-opacity:1"
       sodipodi:nodetypes="scscscs" />
  </g>
</svg>
