<?xml version="1.0" encoding="UTF-8" standalone="no"?>
<svg
   xmlns:dc="http://purl.org/dc/elements/1.1/"
   xmlns:cc="http://creativecommons.org/ns#"
   xmlns:rdf="http://www.w3.org/1999/02/22-rdf-syntax-ns#"
   xmlns:svg="http://www.w3.org/2000/svg"
   xmlns="http://www.w3.org/2000/svg"
   xmlns:sodipodi="http://sodipodi.sourceforge.net/DTD/sodipodi-0.dtd"
   xmlns:inkscape="http://www.inkscape.org/namespaces/inkscape"
   sodipodi:docname="welcome.svg"
   width="103mm"
   height="141mm"
   viewBox="0 0 103 141"
   version="1.1"
   id="svg8"
   inkscape:version="1.0 (4035a4f, 2020-05-01)">
  <defs
     id="defs2" />
  <sodipodi:namedview
     inkscape:window-maximized="0"
     inkscape:window-y="188"
     inkscape:window-x="0"
     inkscape:window-height="1080"
     inkscape:window-width="1920"
     id="base"
     pagecolor="#ffffff"
     bordercolor="#666666"
     borderopacity="1.0"
     inkscape:pageopacity="0.0"
     inkscape:pageshadow="2"
     inkscape:zoom="0.98994949"
     inkscape:cx="507.45327"
     inkscape:cy="315.46962"
     inkscape:document-units="mm"
     inkscape:current-layer="layer2"
     inkscape:document-rotation="0"
     showgrid="false" />
  <metadata
     id="metadata5">
    <rdf:RDF>
      <cc:Work
         rdf:about="">
        <dc:format>image/svg+xml</dc:format>
        <dc:type
           rdf:resource="http://purl.org/dc/dcmitype/StillImage" />
        <dc:title></dc:title>
      </cc:Work>
    </rdf:RDF>
  </metadata>
  <g
     style="display:none"
     inkscape:label="Capa 1"
     inkscape:groupmode="layer"
     id="layer1">
    <path
       d="m 16.20295,88.979441 a 3.2139294,2.9776945 0 0 1 -3.21393,2.97769 3.2139294,2.9776945 0 0 1 -3.21393,-2.97769 3.2139294,2.9776945 0 0 1 3.21393,-2.9777 3.2139294,2.9776945 0 0 1 3.21393,2.9777 m 27.73272,2.40959 a 10.819427,7.7483702 0 0 1 -10.81943,7.74837 10.819427,7.7483702 0 0 1 -10.81942,-7.74837 10.819427,7.7483702 0 0 1 10.81942,-7.74837 10.819427,7.7483702 0 0 1 10.81943,7.74837 M 77.8515,31.574301 a 3.7720721,3.5358365 0 0 1 -3.77207,3.535836 3.7720721,3.5358365 0 0 1 -3.77208,-3.535836 3.7720721,3.5358365 0 0 1 3.77208,-3.535836 3.7720721,3.5358365 0 0 1 3.77207,3.535836 m 17.38691,25.56064 a 3.7720718,3.5358362 0 0 1 -3.77207,3.53583 3.7720718,3.5358362 0 0 1 -3.77207,-3.53583 3.7720718,3.5358362 0 0 1 3.77207,-3.535838 3.7720718,3.5358362 0 0 1 3.77207,3.535838 m 1.86987,-17.670389 a 8.0515594,7.7680764 0 0 1 -8.05156,7.768077 8.0515594,7.7680764 0 0 1 -8.05156,-7.768077 8.0515594,7.7680764 0 0 1 8.05156,-7.768076 8.0515594,7.7680764 0 0 1 8.05156,7.768076 M 0,0 0.0461,28.448097 c 2.27126,2.580426 7.88518,4.250608 14.78765,4.69355 9.68071,0.273542 21.00089,-2.903331 35.54667,-8.686292 11.16327,-3.31066 21.24247,-7.52787 34.34416,-4.677233 11.98259,3.563591 15.48124,12.783299 20.31245,21.114472 V 0 Z m 92.08069,5.792927 c 2.31368,8e-5 4.18928,1.833343 4.18941,4.094843 1.6e-4,2.2617 -1.87552,4.095276 -4.18941,4.095355 -2.31409,1.99e-4 -4.19009,-1.833459 -4.18993,-4.095355 1.2e-4,-2.261696 1.87604,-4.095041 4.18993,-4.094843 z m -44.74301,8.299752 c 1.7223,8.4e-5 3.1184,1.438748 3.11816,3.213243 -4e-5,1.77429 -1.39605,3.212637 -3.11816,3.212721 -1.7221,-8.4e-5 -3.11811,-1.438431 -3.11815,-3.212721 -2.4e-4,-1.774495 1.39585,-3.213159 3.11815,-3.213243 z"
       style="display:inline;fill:#005ad2;fill-opacity:1;stroke:none;stroke-width:0.0977368;stroke-linejoin:round;stroke-opacity:1;paint-order:fill markers stroke"
       id="path1106-6-1-3-6" />
  </g>
  <g
     style="display:inline"
     inkscape:label="Capa 2"
     id="layer2"
     inkscape:groupmode="layer">
    <path
       transform="scale(0.26458333)"
       d="m 363.98242,-0.07421875 c -1.24079,0.01554386 -2.52515,0.06416663 -3.85351,0.14257812 L 119.7168,0.3203125 c 3.82854,44.2225205 23.80701,84.4616605 57.99609,113.5039075 26.18574,15.94189 40.21465,27.87767 122.39844,49.45703 102.5237,27.53633 25.21362,278.30004 -119.19531,135.20898 C 155.01276,280.16685 130.00245,258.49204 100.50195,253.6582 76.173704,248.49816 51.195932,243.87141 0.875,260.0625 L 0.1640625,430.14062 c 54.9238675,-0.80589 76.6155445,22.67263 108.8769575,38.42774 54.34702,29.57628 63.82784,59.97214 187.86914,65.46875 28.22029,-2.61865 53.55783,0.35707 93.93359,-37.7168 l 0.59766,-466.363279 c -0.05,-23.1357791 -8.84706,-30.26440764 -27.45899,-30.03124975 z M 239.33594,12.619141 c 6.37076,10e-6 11.53516,5.43162 11.53515,12.130859 0,6.699236 -5.1644,12.130849 -11.53515,12.130859 -6.37077,1.2e-5 -11.53516,-5.431607 -11.53516,-12.130859 0,-6.699255 5.16439,-12.130871 11.53516,-12.130859 z m 82.69922,15.835937 c 55.99371,12.57363 32.08791,83.986462 17.5664,90.177732 -58.81587,1.66713 -67.59793,-27.73136 -68.80273,-38.279294 12.52932,-46.758115 31.68525,-50.606901 51.23633,-51.898438 z m 45.61523,162.798832 c 6.37078,-2e-5 11.53516,5.42964 11.53516,12.1289 0,6.69926 -5.16438,12.13088 -11.53516,12.13086 -6.37077,1e-5 -11.53516,-5.43161 -11.53516,-12.13086 10e-6,-6.69925 5.16439,-12.12891 11.53516,-12.1289 z M 243.35938,242.09375 C 229.1033,243.07218 215.13599,245.9876 206,281.41016 c 0.87851,7.99081 7.28313,30.26296 50.16992,29 10.58865,-4.69033 28.01841,-58.791 -12.81054,-68.31641 z M 44.90625,370.2168 c 8.285881,1e-5 15.003906,7.43334 15.003906,16.60351 -7e-6,9.17016 -6.718029,16.60352 -15.003906,16.60352 -8.285893,0 -15.001947,-7.43333 -15.001953,-16.60352 0,-9.17019 6.716056,-16.60352 15.001953,-16.60351 z m 248.80078,81.27148 c 17.80755,0.43416 54.50184,25.1108 16.18945,45.90039 -15.54281,4.07074 -36.17263,0.69201 -49.8125,-12.63086 -7.51884,-8.73207 3.71792,-31.94722 33.62305,-33.26953 z"
       style="fill:#005ad2;fill-opacity:1;stroke:none;stroke-width:0.327282;stroke-linejoin:round;stroke-opacity:1;paint-order:fill markers stroke"
       id="path1100" />
  </g>
  <g
     style="display:none"
     inkscape:label="Capa 3"
     id="layer3"
     inkscape:groupmode="layer">
    <path
       transform="scale(0.26458333)"
       d="m 0.5,0.5 v 142.43164 c 8.4300849,3.05133 17.674985,4.67689 28.789062,3.03125 66.434418,-22.53985 88.519608,-39.38533 118.187498,-40.91211 55.21077,-5.713283 95.29972,3.69697 131.82617,16.66797 106.93383,52.32654 90.45688,216.06383 -60.10546,159.09766 -28.81675,-8.4768 -58.95101,-21.40219 -102.5293,-17.17188 -34.912179,2.74409 -75.696026,10.549 -115.91601688,46.4668 v 86.62109 c 20.19375088,0.96367 45.55089488,4.50761 66.41796888,8.83789 29.932648,8.52722 55.572008,23.84823 95.964848,28.79102 37.69863,0.65337 79.76415,-20.7667 121.72265,-20.70899 56.98779,1.6636 80.70527,14.68835 111.62305,25.25391 V 0.5 Z m 234.35547,10.054688 c 9.37075,-1e-6 16.9668,6.013511 16.9668,13.43164 0,7.418128 -7.59605,13.431641 -16.9668,13.431641 -9.37075,0 -16.9668,-6.013513 -16.9668,-13.431641 0,-7.418129 7.59605,-13.431641 16.9668,-13.43164 z m 86.25391,3.103515 c 23.54987,-0.136591 42.00975,13.016747 45.57031,31.035156 0.74952,22.941381 -37.65192,49.070519 -60.35547,42.427735 -27.75856,-6.332107 -35.50372,-51.164759 7.32226,-72.984375 2.53424,-0.307911 5.0267,-0.464386 7.4629,-0.478516 z m 46.83398,84.433594 c 4.95932,1.1e-5 8.97852,4.810463 8.97852,10.746093 -2e-5,5.93561 -4.01921,10.74804 -8.97852,10.74805 -4.95932,1e-5 -8.98046,-4.81241 -8.98047,-10.74805 -1e-5,-5.93565 4.02114,-10.746108 8.98047,-10.746093 z M 307.46094,309.05664 c 9.22967,-1e-5 16.71093,6.23812 16.71094,13.93359 -10e-6,7.69548 -7.48127,13.93556 -16.71094,13.93555 -9.22967,-10e-6 -16.71289,-6.24008 -16.71289,-13.93555 0,-7.69546 7.48322,-13.93358 16.71289,-13.93359 z M 49.619141,325.53906 c 7.17024,0 12.982425,4.90844 12.982421,10.96289 3.1e-5,6.05447 -5.812162,10.9629 -12.982421,10.96289 -7.170244,-10e-6 -12.982452,-4.90843 -12.982422,-10.96289 -6e-6,-6.05444 5.812197,-10.96288 12.982422,-10.96289 z m 37.123047,33.94532 c 6.554279,1e-5 11.867217,4.35194 11.867187,9.7207 -2.3e-5,5.36873 -5.312946,9.7207 -11.867187,9.7207 -6.554257,0 -11.867165,-4.35196 -11.867188,-9.7207 -3e-5,-5.36877 5.312893,-9.72071 11.867188,-9.7207 z"
       style="fill:#005ad2;fill-opacity:1;stroke:none;stroke-width:0.999999px;stroke-linecap:butt;stroke-linejoin:miter;stroke-opacity:1"
       id="path1082" />
  </g>
</svg>
